<svg width="402" height="874" viewBox="0 0 402 874" fill="none" xmlns="http://www.w3.org/2000/svg">
<g clip-path="url(#clip0_7_4002)">
<g clip-path="url(#clip1_7_4002)">
<path d="M1225 -0.784359H0V874.896H1225V-0.784359Z" fill="#9DDCF9"/>
<path d="M0 378.285C0 378.285 96.234 258.951 320.892 354.754C545.55 450.558 334.304 425.123 674.644 426.915C1014.98 428.708 926.909 365.735 989.165 359.797C989.165 359.797 1027.28 347.919 1060.47 386.689C1093.67 425.347 1093.67 287.636 1145.64 259.063C1197.62 230.489 1224.89 259.063 1224.89 259.063V574.935H0V378.285Z" fill="#84D5F7"/>
<path d="M0 487.423C0 487.423 97.24 234.187 298.426 453.808C507.771 682.28 627.03 357.444 627.03 357.444C627.03 357.444 698.563 162.474 741.036 153.51C783.508 144.546 799.156 160.233 814.804 171.438C830.452 182.644 879.63 250.211 908.691 340.748C937.751 431.285 980.224 568.1 1031.64 512.074C1083.05 456.049 1056.23 366.408 1056.23 366.408C1056.23 366.408 1029.96 310.382 1063.27 292.454C1096.46 274.526 1141.17 326.069 1141.17 326.069L1225 411.228V657.741H0V523.279V487.423Z" fill="#4F953D"/>
<path d="M0 606.197C93.7751 496.723 152.678 397.334 285.461 396.325C415.673 407.979 480.947 550.844 557.733 617.403C576.734 595.328 642.678 527.762 743.271 519.47C848 507.704 888.125 547.595 969.047 594.992C1036.78 450.558 1132.34 322.82 1225 292.454V731.695H0V606.197Z" fill="#50A640"/>
<path d="M34.6487 117.654H210.463L174.138 103.087C174.138 103.087 189.003 68.2392 160.39 66.1103C131.777 63.9813 129.653 67.1187 127.53 77.7636C125.406 88.4085 139.266 30.7021 101.04 22.5223C29.0602 7.05923 31.1839 87.512 42.808 94.9074C54.432 102.303 34.6487 117.654 34.6487 117.654Z" fill="#DCEBF1"/>
<path d="M0 252.115H300.661L188.891 235.308C188.891 235.308 206.775 166.956 158.713 170.318C110.652 173.679 122.612 201.692 122.612 201.692C122.612 201.692 115.123 132.221 79.3567 138.944C79.3567 138.944 42.4726 142.305 45.8257 179.282C45.8257 179.282 48.0611 84.0385 0 82.9179V252.115Z" fill="white"/>
<path d="M1225 731.695V766.431C946.357 756.458 718.905 795.452 533.814 875.121H0V731.695H1225Z" fill="#94C767"/>
<path d="M1225 633.09C1225 633.09 1062.93 350.833 884.101 618.635C884.101 618.635 810.333 548.155 732.094 618.635C653.855 689.115 0 712.422 0 712.422V731.695H1225V633.09Z" fill="#5BBA47"/>
<path d="M202.192 821.224C227.377 821.224 247.794 816.408 247.794 810.467C247.794 804.526 227.377 799.71 202.192 799.71C177.007 799.71 156.59 804.526 156.59 810.467C156.59 816.408 177.007 821.224 202.192 821.224Z" fill="#8ABA60"/>
<path d="M268.248 397.11C268.248 397.11 112.888 449.662 249.247 503.222C249.247 503.222 193.362 674.773 439.256 681.384C439.256 681.384 0 718.809 0 712.422V606.197C0 606.197 116.353 403.048 268.248 397.11Z" fill="#509A44"/>
<path d="M0 712.422C0 712.422 38.4489 700.881 44.0374 735.953C49.6259 771.025 44.1492 739.538 44.1492 739.538C44.1492 739.538 85.3923 721.61 87.8513 758.139C87.8513 758.139 148.207 738.978 143.177 791.194C152.231 806.769 171.344 819.431 200.739 829.292H0V712.422Z" fill="#4F953D"/>
<path d="M0 742.564C0 742.564 28.5014 734.048 32.6369 760.044C36.7724 786.04 32.6369 762.733 32.6369 762.733C32.6369 762.733 63.2619 749.511 65.0502 776.515C65.0502 776.515 109.87 762.285 106.07 801.055C112.776 812.596 126.971 822.008 148.766 829.292H0V742.564Z" fill="#488A3D"/>
<path d="M1225 766.431V749.623C1225 749.623 570.027 731.695 318.545 874L533.814 875.12C537.949 877.474 700.91 770.128 1225 766.431Z" fill="#FFDA85"/>
<path d="M79.3568 384.448C79.3568 384.448 41.3549 406.746 2.49147e-05 487.423L-1.11768 599.474C-1.11768 599.474 117.135 461.763 113.894 464.901C110.652 467.926 73.7683 449.326 79.3568 420.192C84.9453 391.059 116.688 366.744 126.412 365.623L79.3568 384.448Z" fill="#4B8D3F"/>
<path d="M285.237 774.61C302.213 774.61 315.974 772.604 315.974 770.128C315.974 767.653 302.213 765.646 285.237 765.646C268.262 765.646 254.5 767.653 254.5 770.128C254.5 772.604 268.262 774.61 285.237 774.61Z" fill="#8ABA60"/>
<path d="M243.994 762.621C247.883 762.621 251.036 761.969 251.036 761.164C251.036 760.36 247.883 759.708 243.994 759.708C240.105 759.708 236.953 760.36 236.953 761.164C236.953 761.969 240.105 762.621 243.994 762.621Z" fill="#8ABA60"/>
<path d="M121.718 853.495C138.94 853.495 152.901 850.936 152.901 847.78C152.901 844.624 138.94 842.065 121.718 842.065C104.495 842.065 90.5338 844.624 90.5338 847.78C90.5338 850.936 104.495 853.495 121.718 853.495Z" fill="#8ABA60"/>
<path d="M170.673 842.065C176.043 842.065 180.397 840.661 180.397 838.928C180.397 837.195 176.043 835.791 170.673 835.791C165.302 835.791 160.949 837.195 160.949 838.928C160.949 840.661 165.302 842.065 170.673 842.065Z" fill="#8ABA60"/>
<path d="M396.001 816.069C407.915 816.069 417.573 814.665 417.573 812.932C417.573 811.199 407.915 809.795 396.001 809.795C384.088 809.795 374.43 811.199 374.43 812.932C374.43 814.665 384.088 816.069 396.001 816.069Z" fill="#8ABA60"/>
<path d="M44.3727 869.854C64.9284 869.854 81.5921 863.633 81.5921 855.96C81.5921 848.286 64.9284 842.065 44.3727 842.065C23.817 842.065 7.15326 848.286 7.15326 855.96C7.15326 863.633 23.817 869.854 44.3727 869.854Z" fill="#8ABA60"/>
<path d="M82.4863 842.065C86.9308 842.065 90.5337 840.661 90.5337 838.928C90.5337 837.195 86.9308 835.791 82.4863 835.791C78.0418 835.791 74.4388 837.195 74.4388 838.928C74.4388 840.661 78.0418 842.065 82.4863 842.065Z" fill="#8ABA60"/>
<path d="M247.012 825.034C251.148 825.034 254.5 824.181 254.5 823.129C254.5 822.077 251.148 821.224 247.012 821.224C242.876 821.224 239.523 822.077 239.523 823.129C239.523 824.181 242.876 825.034 247.012 825.034Z" fill="#8ABA60"/>
<path d="M309.603 856.072C314.541 856.072 318.545 855.47 318.545 854.727C318.545 853.985 314.541 853.383 309.603 853.383C304.665 853.383 300.661 853.985 300.661 854.727C300.661 855.47 304.665 856.072 309.603 856.072Z" fill="#8ABA60"/>
</g>
</g>
<defs>
<clipPath id="clip0_7_4002">
<rect width="402" height="874" fill="white"/>
</clipPath>
<clipPath id="clip1_7_4002">
<rect width="1225" height="874" fill="white"/>
</clipPath>
</defs>
</svg>
