<svg width="93" height="79" viewBox="0 0 93 79" fill="none" xmlns="http://www.w3.org/2000/svg">
<path d="M41.9187 30.3835C41.8849 34.0326 41.3781 37.5127 40.3983 40.8238C38.2359 48.0882 34.4263 52.4552 28.9696 53.925C23.5129 55.3778 18.0309 53.4942 12.5235 48.274C7.18507 43.2228 3.32485 36.499 0.942827 28.1028L0.765424 27.4693C0.309292 25.7799 0.0558846 24.1243 0.00520325 22.5025C0.106566 19.2082 1.0442 16.0322 2.81804 12.9744C5.62241 8.10903 9.73604 4.93298 15.1589 3.44633C20.6325 2.01036 25.8105 2.71146 30.6928 5.54962C35.5751 8.35399 38.7427 12.4761 40.1956 17.9159L40.3223 18.5494C41.3528 22.6546 41.8849 26.5993 41.9187 30.3835ZM60.6962 23.1867L60.5948 23.6175C59.142 29.4628 59.125 34.8012 60.5441 39.6328C62.0308 44.6334 64.6493 47.6321 68.3997 48.6288C72.1502 49.6255 75.9259 48.3331 79.727 44.7517C83.393 41.2715 86.0453 36.6511 87.684 30.8903L87.8107 30.4595C88.8074 26.7091 88.3344 23.1529 86.3916 19.7911C84.4657 16.4461 81.636 14.2584 77.9025 13.2278C74.1352 12.248 70.579 12.7295 67.2341 14.6723C63.8722 16.6151 61.6929 19.4532 60.6962 23.1867ZM92.6001 22.5025C92.5494 24.1243 92.296 25.7799 91.8399 27.4693L91.6625 28.1028C89.2805 36.499 85.4202 43.2228 80.0818 48.274C74.5744 53.4942 69.0924 55.3778 63.6357 53.925C58.179 52.4552 54.3694 48.0882 52.207 40.8238C51.2272 37.5127 50.7204 34.0326 50.6866 30.3835C50.7204 26.5993 51.2525 22.6546 52.2831 18.5494L52.4098 17.9159C53.8626 12.4761 57.0302 8.35399 61.9125 5.54962C66.7948 2.71146 71.9728 2.01036 77.4464 3.44633C82.8693 4.93298 86.9829 8.10903 89.7873 12.9744C91.5611 16.0322 92.4987 19.2082 92.6001 22.5025ZM31.9091 23.1867C30.9124 19.4532 28.7331 16.6151 25.3713 14.6723C22.0263 12.7295 18.4701 12.248 14.7028 13.2278C10.9693 14.2584 8.13957 16.4461 6.21367 19.7911C4.27089 23.1529 3.79787 26.7091 4.7946 30.4595L4.9213 30.8903C6.56 36.6511 9.21233 41.2715 12.8783 44.7517C16.6794 48.3331 20.4551 49.6255 24.2056 48.6288C27.956 47.6321 30.5745 44.6334 32.0612 39.6328C33.4803 34.8012 33.4634 29.4628 32.0105 23.6175L31.9091 23.1867Z" fill="#BDB6B6"/>
<path d="M31.9091 23.1867L32.0105 23.6175C33.4634 29.4628 33.4802 34.8012 32.0612 39.6328C30.5745 44.6334 27.956 47.6321 24.2055 48.6288C20.4551 49.6255 16.6794 48.3331 12.8783 44.7516C9.21232 41.2715 6.55999 36.6511 4.92129 30.8903L4.79459 30.4595C3.79786 26.7091 4.27088 23.1529 6.21366 19.7911C8.13955 16.4461 10.9693 14.2584 14.7028 13.2278C18.4701 12.248 22.0263 12.7295 25.3712 14.6723C28.7331 16.6151 30.9124 19.4532 31.9091 23.1867ZM60.6961 23.1867C61.6929 19.4532 63.8722 16.6151 67.2341 14.6723C70.579 12.7295 74.1352 12.248 77.9025 13.2278C81.636 14.2584 84.4657 16.4461 86.3916 19.7911C88.3344 23.1529 88.8074 26.7091 87.8107 30.4595L87.684 30.8903C86.0453 36.6511 83.393 41.2715 79.727 44.7516C75.9259 48.3331 72.1501 49.6255 68.3997 48.6288C64.6493 47.6321 62.0308 44.6334 60.5441 39.6328C59.125 34.8012 59.1419 29.4628 60.5948 23.6175L60.6961 23.1867Z" fill="#AFA8A8"/>
<path d="M50.6866 30.3835C50.6359 26.2952 51.1681 22.0126 52.2831 17.5358L52.4098 16.9022C53.8627 11.4624 57.0302 7.34036 61.9125 4.53599C66.7949 1.69784 71.9728 0.996732 77.4464 2.4327C82.8693 3.91936 86.9829 7.0954 89.7873 11.9608C91.747 15.3396 92.6846 18.8535 92.6001 22.5025C92.4988 19.2082 91.5612 16.0322 89.7873 12.9744C86.9829 8.10903 82.8693 4.93299 77.4464 3.44633C71.9728 2.01036 66.7949 2.71146 61.9125 5.54962C57.0302 8.35399 53.8627 12.4761 52.4098 17.9159L52.2831 18.5494C51.2526 22.6546 50.7204 26.5993 50.6866 30.3835ZM41.9187 30.3835C41.885 26.5993 41.3528 22.6546 40.3223 18.5494L40.1956 17.9159C38.7427 12.4761 35.5751 8.35399 30.6928 5.54962C25.8105 2.71146 20.6326 2.01036 15.159 3.44633C9.73607 4.93299 5.62245 8.10903 2.81808 12.9744C1.04423 16.0322 0.106598 19.2082 0.00523556 22.5025C-0.0792334 18.8535 0.858397 15.3396 2.81808 11.9608C5.62245 7.0954 9.73607 3.91936 15.159 2.4327C20.6326 0.996732 25.8105 1.69784 30.6928 4.53599C35.5751 7.34036 38.7427 11.4624 40.1956 16.9022L40.3223 17.5358C41.4373 22.0126 41.9694 26.2952 41.9187 30.3835Z" fill="#DBD9D9"/>
<path d="M13.8919 33.4497L13.8666 32.4361C13.8666 23.4655 17.0342 15.821 23.3694 9.50276C24.8053 8.06679 26.3004 6.79975 27.8547 5.70166C28.4459 5.2962 29.0457 4.90765 29.6538 4.53599C34.5868 1.512 40.1365 0 46.3027 0C52.4858 0 58.0439 1.50354 62.9768 4.51064L64.7507 5.67632C66.3218 6.79131 67.8254 8.06679 69.2613 9.50276C75.5796 15.821 78.7388 23.4655 78.7388 32.4361V33.4497C78.5023 24.9183 75.3431 17.6118 69.2613 11.53C67.7747 10.0434 66.2205 8.73409 64.5987 7.60221C63.6526 6.94335 62.6812 6.34363 61.6845 5.80302L60.088 7.07006C56.2869 9.78996 51.6918 11.1499 46.3027 11.1499C40.9136 11.1499 36.31 9.78996 32.492 7.07006L30.9209 5.82836C29.9241 6.36896 28.9527 6.96868 28.0067 7.62754C26.3849 8.75943 24.8391 10.0603 23.3694 11.53C17.2707 17.6118 14.1116 24.9183 13.8919 33.4497Z" fill="#DBD9D9"/>
<path d="M13.892 33.4497C14.1116 24.9183 17.2707 17.6118 23.3694 11.53C24.8392 10.0603 26.3849 8.75943 28.0067 7.62754C28.9528 6.96868 29.9242 6.36896 30.9209 5.82836L32.492 7.07006C36.31 9.78996 40.9136 11.1499 46.3027 11.1499C51.6918 11.1499 56.287 9.78996 60.0881 7.07006L61.6845 5.80302C62.6812 6.34363 63.6526 6.94335 64.5987 7.60221C66.2205 8.73409 67.7747 10.0434 69.2614 11.53C75.3431 17.6118 78.5023 24.9183 78.7388 33.4497C78.5868 38.5854 77.3788 43.2903 75.1151 47.5645C74.4562 48.8146 73.7044 50.0225 72.8597 51.1882H72.8344C71.7701 52.6411 70.5707 54.0348 69.236 55.3694L66.8793 57.5487C66.1867 58.1231 65.4772 58.6637 64.7507 59.1705C59.3785 62.9716 53.2292 64.8722 46.3027 64.8722C39.3594 64.8722 33.21 62.9801 27.8547 59.1958L25.7768 57.5994L23.3441 55.3694C20.7762 52.8015 18.732 50.0225 17.2116 47.0323L14.3988 38.5685V38.4672L14.2974 37.9097L14.2721 37.783L14.2467 37.5296L14.196 37.2508L14.12 36.6173V36.5159L14.0693 36.2118V36.0851L14.044 35.9838V35.8571L14.0187 35.705L13.9933 35.3756V35.2489L13.968 35.0969L13.892 33.4497Z" fill="#D2D0D0"/>
<path d="M24.8391 70.0417C24.5688 69.991 24.3239 69.8727 24.1043 69.6869L24.0282 69.6616C23.7917 69.4082 23.6481 69.1294 23.5975 68.8253C23.1751 66.9839 22.871 65.2438 22.6852 63.6051L22.4571 60.8937C22.2544 54.2713 25.2277 49.9972 31.377 48.0713C32.5427 49.1356 33.4212 50.2675 34.0125 51.4669L34.3419 52.2272L32.8721 53.6969C28.3615 58.3596 25.7514 63.149 25.0419 68.0651L24.8391 70.0417ZM58.2635 52.2272L58.6183 51.4669C59.1927 50.2675 60.0627 49.1356 61.2284 48.0713C67.3777 49.9972 70.351 54.2713 70.1483 60.8937L69.9455 63.5798C69.7597 65.2185 69.4472 66.967 69.008 68.8253C68.9573 69.1294 68.8137 69.4082 68.5772 69.6616L68.5011 69.6869C68.2815 69.8727 68.0366 69.991 67.7663 70.0417L67.5889 68.0651C66.8624 63.149 64.2439 58.3596 59.7333 53.6969L58.2635 52.2272Z" fill="#FFFCF5"/>
<path d="M58.2635 52.2271C57.7398 53.6631 57.5709 55.2089 57.7567 56.8645L56.0842 55.8255L53.8289 54.5332L53.3728 54.2291L52.8406 53.7223L52.8153 53.6969C52.6801 53.4604 52.621 53.2154 52.6379 52.962L52.6126 52.9367L52.5872 52.8353V52.7846L53.6515 50.8588L57.4273 43.8394C58.1706 46.0525 59.4376 47.4631 61.2284 48.0713C60.0627 49.1356 59.1927 50.2675 58.6183 51.4669L58.2635 52.2271ZM34.3419 52.2271L34.0125 51.4669C33.4212 50.2675 32.5427 49.1356 31.377 48.0713C33.1678 47.4631 34.4348 46.0525 35.1781 43.8394L38.9539 50.8588L40.0182 52.7846V52.8353L39.9929 52.9367L39.9675 52.962L39.7901 53.6969L39.7648 53.7223L39.2327 54.2291L38.8019 54.5332L36.5212 55.8255C35.9299 56.1465 35.3724 56.4928 34.8487 56.8645C35.0345 55.2089 34.8656 53.6631 34.3419 52.2271Z" fill="#CDCBCB"/>
<path d="M34.3418 52.2272C34.8655 53.6631 35.0345 55.2089 34.8486 56.8645L33.911 57.498C32.6102 58.5117 31.4615 59.6942 30.4647 61.0457C29.8903 61.8397 29.3666 62.6929 28.8936 63.6051C28.5895 64.1626 28.3108 64.7455 28.0574 65.3536L27.4745 66.9248C26.8156 68.8844 25.9372 69.9234 24.8391 70.0417L25.0418 68.0651C25.7513 63.149 28.3614 58.3596 32.8721 53.6969L34.3418 52.2272ZM38.9538 50.8588L39.8154 52.2018H39.8408L40.0181 52.7847L38.9538 50.8588ZM62.0139 60.8937C61.0509 59.5928 59.9444 58.461 58.6942 57.498L57.7566 56.8645C57.5708 55.2089 57.7397 53.6631 58.2634 52.2272L59.7332 53.6969C64.2439 58.3596 66.8624 63.149 67.5888 68.0651L67.7662 70.0417C66.6681 69.9234 65.7896 68.8844 65.1308 66.9248L64.5479 65.3536L63.737 63.6051C63.2133 62.6253 62.6389 61.7215 62.0139 60.8937ZM53.6514 50.8588L52.5871 52.7847C52.6209 52.5481 52.6801 52.3539 52.7645 52.2018H52.7899C53.0602 51.7119 53.3474 51.2642 53.6514 50.8588Z" fill="#F0EDE7"/>
<path d="M38.8018 54.5332L38.9539 54.7359L39.8155 55.6735H39.8408L40.0182 56.0789V56.1043L39.9928 56.1803H39.9675L39.7901 56.7125H39.7648L39.2326 57.0672L36.5212 58.1822C35.9299 58.4018 35.3724 58.6468 34.8487 58.9171C34.5277 59.0354 34.2152 59.179 33.9111 59.3479C32.8637 59.9054 31.9176 60.5474 31.0729 61.2738L30.4648 61.0457C31.4615 59.6942 32.6103 58.5117 33.9111 57.498L34.8487 56.8645C35.3724 56.4929 35.9299 56.1465 36.5212 55.8255L38.8018 54.5332ZM53.8289 54.5332L56.0842 55.8255L57.7567 56.8645L58.6943 57.498C59.9444 58.461 61.051 59.5929 62.0139 60.8937L61.4564 61.2231C60.6286 60.5136 59.7079 59.8885 58.6943 59.3479C58.3902 59.179 58.0776 59.0354 57.7567 58.9171C57.233 58.6468 56.6755 58.4018 56.0842 58.1822L53.3727 57.0672L52.8406 56.7125H52.8152C52.6801 56.5435 52.621 56.3661 52.6379 56.1803H52.6125L52.5872 56.1043V56.0789C52.6209 55.91 52.6801 55.7749 52.7646 55.6735H52.7899L53.6515 54.7359L53.8289 54.5332Z" fill="black" fill-opacity="0.0509804"/>
<path d="M34.0885 49.0849L33.8858 48.4007C33.1424 45.3936 33.852 42.6568 36.0144 40.1903C38.5822 37.386 42.0117 35.9838 46.3027 35.9838C50.6106 35.9838 54.0147 37.386 56.515 40.1903C58.745 42.6568 59.4714 45.3936 58.6943 48.4007L58.5422 49.0849C58.1199 48.2909 57.4441 47.5307 56.515 46.8043C54.0147 44.8446 50.6106 43.8647 46.3027 43.8647C42.0117 43.8647 38.5822 44.8446 36.0144 46.8043C35.1021 47.5307 34.4601 48.2909 34.0885 49.0849Z" fill="#E7E5E5"/>
<path d="M58.5422 49.0849C56.667 53.9841 55.1212 59.0776 53.9049 64.3654C52.9926 68.2509 52.2662 72.2463 51.7256 76.3515C51.6073 76.8752 50.9991 77.306 49.901 77.6439C48.8874 77.948 47.6879 78.1 46.3027 78.1C44.9174 78.1 43.7094 77.948 42.6789 77.6439C41.6146 77.306 41.0233 76.8752 40.9051 76.3515C40.4152 72.1112 39.7648 68.1158 38.9539 64.3654C37.7037 58.7059 36.0819 53.6125 34.0884 49.0849C34.4601 48.2909 35.1021 47.5307 36.0143 46.8043C38.5822 44.8446 42.0116 43.8647 46.3027 43.8647C50.6106 43.8647 54.0147 44.8446 56.5149 46.8043C57.4441 47.5307 58.1198 48.2909 58.5422 49.0849ZM40.1449 52.2018H40.1195C44.4105 54.1784 48.5326 54.1784 52.4858 52.2018L52.5111 52.1765C52.7476 52.0751 52.9081 51.8893 52.9926 51.619V51.6697C53.0771 51.4332 53.0771 51.2135 52.9926 51.0108C52.9081 50.7405 52.7476 50.5547 52.5111 50.4533H52.4858C48.5495 48.4429 44.4359 48.4345 40.1449 50.428C39.8577 50.5293 39.6803 50.7236 39.6127 51.0108C39.5282 51.2135 39.5282 51.4332 39.6127 51.6697C39.6972 51.9062 39.8746 52.0836 40.1449 52.2018Z" fill="#DBD9D9"/>
<path d="M40.1449 52.2018C39.8746 52.0836 39.6972 51.9062 39.6128 51.6697C39.5283 51.4332 39.5283 51.2135 39.6128 51.0108C39.6803 50.7236 39.8577 50.5293 40.1449 50.428C44.4359 48.4345 48.5496 48.4429 52.4858 50.4533H52.5112C52.7477 50.5547 52.9082 50.7405 52.9927 51.0108C53.0771 51.2135 53.0771 51.4332 52.9927 51.6697V51.619C52.9082 51.8893 52.7477 52.0751 52.5112 52.1765L52.4858 52.2018C48.5327 54.1784 44.4106 54.1784 40.1196 52.2018H40.1449Z" fill="#CDCBCB"/>
<path d="M25.498 37.7576C25.498 38.6192 25.802 39.3541 26.4102 39.9623C27.0353 40.5704 27.7955 40.8745 28.6909 40.8745C29.5525 40.8745 30.3042 40.5704 30.9462 39.9623C31.5713 39.3541 31.8838 38.6192 31.8838 37.7576C31.8838 36.8623 31.5713 36.1105 30.9462 35.5023C30.3042 34.8772 29.5525 34.5647 28.6909 34.5647C27.7955 34.5647 27.0353 34.8772 26.4102 35.5023C25.802 36.1105 25.498 36.8623 25.498 37.7576ZM22.7105 37.1494C22.7105 35.7304 23.2088 34.5309 24.2056 33.5511C25.2023 32.5543 26.4018 32.056 27.804 32.056C29.1892 32.056 30.3887 32.5543 31.4023 33.5511C32.3822 34.5309 32.8721 35.7304 32.8721 37.1494C32.8721 38.5516 32.3822 39.7342 31.4023 40.6971C30.3887 41.7108 29.1892 42.2176 27.804 42.2176C26.4018 42.2176 25.2023 41.7108 24.2056 40.6971C23.2088 39.7342 22.7105 38.5516 22.7105 37.1494ZM69.8948 37.1494C69.8948 38.5516 69.3965 39.7342 68.3997 40.6971C67.403 41.7108 66.2035 42.2176 64.8014 42.2176C63.4161 42.2176 62.2166 41.7108 61.203 40.6971C60.2231 39.7342 59.7332 38.5516 59.7332 37.1494C59.7332 35.7304 60.2231 34.5309 61.203 33.5511C62.2166 32.5543 63.4161 32.056 64.8014 32.056C66.2035 32.056 67.403 32.5543 68.3997 33.5511C69.3965 34.5309 69.8948 35.7304 69.8948 37.1494ZM67.1074 37.7576C67.1074 36.8623 66.8033 36.1105 66.1951 35.5023C65.57 34.8772 64.8098 34.5647 63.9144 34.5647C63.0528 34.5647 62.3011 34.8772 61.6591 35.5023C61.034 36.1105 60.7215 36.8623 60.7215 37.7576C60.7215 38.6192 61.034 39.3541 61.6591 39.9623C62.3011 40.5704 63.0528 40.8745 63.9144 40.8745C64.8098 40.8745 65.57 40.5704 66.1951 39.9623C66.8033 39.3541 67.1074 38.6192 67.1074 37.7576Z" fill="white"/>
<path d="M67.1074 37.7576C67.1074 38.6192 66.8033 39.3541 66.1951 39.9623C65.57 40.5704 64.8098 40.8745 63.9144 40.8745C63.0528 40.8745 62.3011 40.5704 61.6591 39.9623C61.034 39.3541 60.7215 38.6192 60.7215 37.7576C60.7215 36.8622 61.034 36.1105 61.6591 35.5023C62.3011 34.8772 63.0528 34.5647 63.9144 34.5647C64.8098 34.5647 65.57 34.8772 66.1951 35.5023C66.8033 36.1105 67.1074 36.8622 67.1074 37.7576ZM25.498 37.7576C25.498 36.8622 25.802 36.1105 26.4102 35.5023C27.0353 34.8772 27.7955 34.5647 28.6909 34.5647C29.5525 34.5647 30.3042 34.8772 30.9462 35.5023C31.5713 36.1105 31.8838 36.8622 31.8838 37.7576C31.8838 38.6192 31.5713 39.3541 30.9462 39.9623C30.3042 40.5704 29.5525 40.8745 28.6909 40.8745C27.7955 40.8745 27.0353 40.5704 26.4102 39.9623C25.802 39.3541 25.498 38.6192 25.498 37.7576Z" fill="#5B5B5B"/>
</svg>
